<svg version="1.2" baseProfile="tiny-ps" xmlns="http://www.w3.org/2000/svg" viewBox="0 0 65 65" width="65" height="65">
	<g id="logo">
		<path id="path6" fill="#c0282c" fill-rule="evenodd" class="s1" d="m30.28 0.08c6.49-0.45 13.1 1.1 18.69 4.42c6.93 4.07 12.28 10.8 14.59 18.51c2.17 7.11 1.82 14.98-1.05 21.85c-3.05 7.47-9.02 13.69-16.35 17.06c-6.64 3.12-14.36 3.84-21.48 2.07c-7.19-1.74-13.71-6.07-18.15-11.99c-4.34-5.71-6.68-12.9-6.53-20.07c0.1-8.28 3.54-16.44 9.38-22.3c5.49-5.59 13.07-9.06 20.89-9.57zm-6.98 7.38c-6.11 2.21-11.29 6.78-14.35 12.5c15.69-0.01 31.38-0.01 47.07 0c-2.97-5.63-8.05-10.11-14-12.38c-5.95-2.29-12.73-2.34-18.71-0.12zm-16.72 31.33c4.75-0.05 9.51 0.09 14.25-0.07c4.87-4.5 9.71-9.05 14.51-13.63c-9.49 0.01-18.98 0.03-28.47-0.01c-1.32 4.44-1.4 9.21-0.3 13.7zm21.17 0c10.23-0.01 20.47 0.03 30.7-0.02c0.99-4.5 0.94-9.21-0.31-13.65c-4.95-0.04-9.89 0.01-14.84-0.02c-0.48 0.03-1.06-0.08-1.38 0.36c-4.7 4.46-9.46 8.87-14.17 13.33zm-1.57 19.59c5.19 1.25 10.76 0.93 15.76-0.98c6.36-2.39 11.71-7.32 14.61-13.47c-16.05 0-32.11 0.01-48.16-0.01c3.4 7.14 10.08 12.63 17.79 14.45z" />
	</g>
</svg>